<svg width="512" height="512" viewBox="0 0 512 512" fill="none" xmlns="http://www.w3.org/2000/svg">
<path d="M466 60H45C20.099 60 0 80.099 0 105V467C0 491.899 20.099 512 45 512H466C490.901 512 512 491.899 512 467V105C512 80.099 490.901 60 466 60Z" fill="#8296F3"/>
<path d="M512 105V467C512 491.899 490.901 512 466 512H256V60H466C490.901 60 512 80.099 512 105Z" fill="#667EEA"/>
<path d="M436 120H76C67.599 120 61 126.599 61 135V437C61 445.399 67.599 452 76 452H436C444.401 452 451 445.399 451 437V135C451 126.599 444.401 120 436 120Z" fill="#FFF5F5"/>
<path d="M451 135V437C451 445.399 444.401 452 436 452H256V120H436C444.401 120 451 126.599 451 135Z" fill="#EFE2DD"/>
<path d="M324 226H316V218C316 209.709 309.291 203 301 203C292.709 203 286 209.709 286 218V226H279C270.709 226 264 232.709 264 241C264 249.291 270.709 256 279 256H286V263C286 271.291 292.709 278 301 278C309.291 278 316 271.291 316 263V256H324C332.291 256 339 249.291 339 241C339 232.709 332.291 226 324 226Z" fill="#FABE2C"/>
<path d="M352.416 289.325C347.245 286.058 340.624 286.249 335.687 289.779C325.374 297.118 313.393 301 301 301C282.993 301 267.005 292.866 256 280.271C246.781 269.719 241 256.085 241 241C241 228.607 244.882 216.625 252.221 206.312C255.766 201.346 255.942 194.725 252.675 189.583C249.408 184.441 243.49 181.79 237.338 182.845C187.313 191.854 151 235.243 151 286C151 343.891 198.109 391 256 391C306.757 391 350.146 354.687 359.154 304.662C360.238 298.656 357.572 292.592 352.416 289.325V289.325Z" fill="#FED843"/>
<path d="M359.154 304.662C360.238 298.656 357.572 292.592 352.416 289.325C347.245 286.058 340.624 286.249 335.687 289.779C325.374 297.118 313.393 301 301 301C282.993 301 267.005 292.866 256 280.271V391C306.757 391 350.146 354.687 359.154 304.662V304.662Z" fill="#FABE2C"/>
<path d="M76 90C67.709 90 61 83.291 61 75V15C61 6.709 67.709 0 76 0C84.291 0 91 6.709 91 15V75C91 83.291 84.291 90 76 90Z" fill="#613D5C"/>
<path d="M166 90C157.709 90 151 83.291 151 75V15C151 6.709 157.709 0 166 0C174.291 0 181 6.709 181 15V75C181 83.291 174.291 90 166 90Z" fill="#613D5C"/>
<path d="M271 15V75C271 83.399 264.401 90 256 90C247.599 90 241 83.399 241 75V15C241 6.599 247.599 0 256 0C264.401 0 271 6.599 271 15Z" fill="#613D5C"/>
<path d="M346 90C337.709 90 331 83.291 331 75V15C331 6.709 337.709 0 346 0C354.291 0 361 6.709 361 15V75C361 83.291 354.291 90 346 90Z" fill="#4B2746"/>
<path d="M436 90C427.709 90 421 83.291 421 75V15C421 6.709 427.709 0 436 0C444.291 0 451 6.709 451 15V75C451 83.291 444.291 90 436 90Z" fill="#4B2746"/>
<path d="M256 90V0C264.401 0 271 6.599 271 15V75C271 83.399 264.401 90 256 90Z" fill="#4B2746"/>
</svg>
