<svg width="72" height="72" viewBox="0 0 72 72" fill="none" xmlns="http://www.w3.org/2000/svg">
<path d="M62.7948 40.8312C63.6397 39.2313 64.0809 37.4493 64.08 35.64C64.08 30.8729 61.0855 26.815 56.8793 25.2158L56.88 25.2C56.88 16.8494 50.1106 10.08 41.76 10.08C34.7155 10.08 28.8137 14.9047 27.1346 21.425C26.0459 21.0651 24.9067 20.8812 23.76 20.88C18.2218 20.88 13.6634 25.051 13.0392 30.4214C9.29232 31.2142 6.48 34.5377 6.48 38.52C6.48 43.0927 10.1873 46.8 14.76 46.8C14.8874 46.8 15.0134 46.7914 15.1387 46.7842C15.1358 46.9102 15.12 47.0333 15.12 47.16C15.12 55.3118 21.7282 61.92 29.88 61.92C34.5146 61.92 38.646 59.7802 41.3525 56.4379C42.1545 57.2618 43.1134 57.9165 44.1728 58.3635C45.2321 58.8104 46.3703 59.0404 47.52 59.04C50.868 59.04 53.7653 57.132 55.1995 54.347C55.957 54.5882 56.7626 54.72 57.6 54.72C61.974 54.72 65.52 51.174 65.52 46.8C65.52 44.4161 64.4616 42.2834 62.7948 40.8312Z" fill="#C7EDE6"/>
<path d="M55.08 29.16V29.52H52.92V29.16H48.96C48.1007 29.16 47.2766 28.8186 46.669 28.211C46.0614 27.6034 45.72 26.7793 45.72 25.92C45.72 24.2402 47.003 22.8751 48.6396 22.7124C48.6238 22.5821 48.6 22.4546 48.6 22.32C48.6 21.4607 48.9414 20.6366 49.549 20.029C50.1566 19.4214 50.9807 19.08 51.84 19.08C52.8754 19.08 53.7862 19.5739 54.3794 20.3299C54.4802 18.432 56.0369 16.92 57.96 16.92C58.9148 16.92 59.8305 17.2993 60.5056 17.9744C61.1807 18.6495 61.56 19.5652 61.56 20.52C61.56 20.8411 61.5046 21.1464 61.4254 21.443C61.6593 21.1555 61.9542 20.9235 62.2888 20.7638C62.6234 20.6042 62.9893 20.5209 63.36 20.52C63.9713 20.5212 64.5611 20.7453 65.0191 21.1502C65.477 21.5551 65.7716 22.1131 65.8476 22.7196C65.9779 22.7038 66.1054 22.68 66.24 22.68C67.0993 22.68 67.9234 23.0214 68.531 23.629C69.1387 24.2366 69.48 25.0607 69.48 25.92C69.48 26.7793 69.1387 27.6034 68.531 28.211C67.9234 28.8186 67.0993 29.16 66.24 29.16H55.08Z" fill="#FDFCEF"/>
<path d="M57.96 16.56C60.1438 16.56 61.92 18.3362 61.92 20.52V20.5538C62.3561 20.2961 62.8534 20.1601 63.36 20.16C63.9972 20.1623 64.6156 20.376 65.1183 20.7676C65.6209 21.1591 65.9795 21.7064 66.1378 22.3236C66.1718 22.3213 66.2059 22.3201 66.24 22.32C68.225 22.32 69.84 23.935 69.84 25.92C69.84 27.905 68.225 29.52 66.24 29.52H55.08C54.9845 29.52 54.893 29.4821 54.8254 29.4146C54.7579 29.347 54.72 29.2555 54.72 29.16C54.72 29.0645 54.7579 28.973 54.8254 28.9054C54.893 28.8379 54.9845 28.8 55.08 28.8H66.24C67.8283 28.8 69.12 27.5083 69.12 25.92C69.12 24.3317 67.8283 23.04 66.24 23.04C66.1558 23.04 66.0744 23.0522 65.993 23.063L65.8915 23.0767C65.7971 23.0879 65.7021 23.0615 65.627 23.0032C65.5519 22.9448 65.5029 22.8592 65.4905 22.765C65.4245 22.2458 65.1719 21.7683 64.78 21.4215C64.388 21.0747 63.8833 20.8823 63.36 20.88C62.7228 20.88 62.1194 21.1687 61.7033 21.672C61.6507 21.7349 61.5784 21.7782 61.4981 21.7946C61.4178 21.8111 61.3343 21.7999 61.2612 21.7627C61.1883 21.7251 61.1304 21.6637 61.0971 21.5887C61.0638 21.5136 61.0572 21.4295 61.0783 21.3502C61.1551 21.08 61.196 20.8009 61.2 20.52C61.2 18.7337 59.7463 17.28 57.96 17.28C56.2457 17.28 54.8302 18.6278 54.7387 20.3494C54.7349 20.4226 54.7088 20.4929 54.6639 20.5508C54.619 20.6088 54.5575 20.6517 54.4876 20.6738C54.4177 20.6958 54.3427 20.696 54.2727 20.6744C54.2027 20.6527 54.141 20.6101 54.0958 20.5524C53.8295 20.2072 53.4878 19.9276 53.0968 19.7348C52.7058 19.542 52.2759 19.4411 51.84 19.44C50.2517 19.44 48.96 20.7317 48.96 22.32C48.96 22.4042 48.9722 22.4856 48.983 22.567L48.9967 22.6685C49.0025 22.716 48.9988 22.7643 48.9857 22.8103C48.9726 22.8564 48.9505 22.8994 48.9206 22.9368C48.8907 22.9743 48.8536 23.0053 48.8115 23.0282C48.7695 23.0511 48.7233 23.0654 48.6756 23.0702C47.9658 23.1368 47.3064 23.4657 46.8263 23.9928C46.3462 24.5199 46.0801 25.2071 46.08 25.92C46.08 27.5083 47.3717 28.8 48.96 28.8H52.92C53.0155 28.8 53.107 28.8379 53.1746 28.9054C53.2421 28.973 53.28 29.0645 53.28 29.16C53.28 29.2555 53.2421 29.347 53.1746 29.4146C53.107 29.4821 53.0155 29.52 52.92 29.52H48.96C46.975 29.52 45.36 27.905 45.36 25.92C45.3591 25.0914 45.6461 24.2882 46.1718 23.6477C46.6975 23.0073 47.4293 22.5692 48.2422 22.4086C48.2309 21.9287 48.3157 21.4515 48.4914 21.0049C48.6671 20.5582 48.9302 20.1512 49.2653 19.8076C49.6005 19.464 50.0008 19.1908 50.4429 19.0041C50.8851 18.8173 51.36 18.7207 51.84 18.72C52.6867 18.72 53.491 19.0195 54.1318 19.5581C54.3441 18.703 54.8362 17.9434 55.5299 17.4001C56.2235 16.8569 57.0789 16.5612 57.96 16.56Z" fill="#472B29"/>
<path d="M59.04 21.6C60.0502 21.6 60.9185 22.3193 61.1374 23.2855C61.4004 23.1256 61.7022 23.0407 62.01 23.04C62.8754 23.04 63.5925 23.6858 63.7041 24.529C63.8423 24.4969 63.9836 24.4805 64.1254 24.48C64.659 24.4827 65.172 24.6868 65.5616 25.0515C65.9511 25.4163 66.1886 25.9147 66.2263 26.447C66.2295 26.4947 66.2137 26.5417 66.1824 26.5779C66.1512 26.614 66.1069 26.6363 66.0593 26.64H66.0463C66.0009 26.6399 65.9571 26.6227 65.9239 26.5917C65.8906 26.5607 65.8703 26.5183 65.867 26.473C65.8358 26.0314 65.6391 25.6179 65.3162 25.3152C64.9933 25.0124 64.568 24.8427 64.1254 24.84C63.9605 24.84 63.787 24.8702 63.594 24.9314C63.5784 24.9363 63.5621 24.9387 63.5458 24.9386C63.5212 24.9385 63.4969 24.9334 63.4742 24.9238C63.4516 24.9143 63.4311 24.9003 63.4138 24.8828C63.3966 24.8653 63.3829 24.8445 63.3737 24.8218C63.3645 24.799 63.3598 24.7746 63.36 24.75C63.3596 24.3921 63.2173 24.0489 62.9642 23.7958C62.7111 23.5427 62.3679 23.4004 62.01 23.4C61.6882 23.4 61.3728 23.521 61.1237 23.7406C61.0908 23.7695 61.0486 23.7856 61.0049 23.7859C60.9818 23.786 60.959 23.7814 60.9379 23.7722C60.9068 23.7599 60.8799 23.739 60.8601 23.712C60.8404 23.685 60.8287 23.653 60.8263 23.6196C60.7514 22.6886 59.9674 21.96 59.04 21.96C58.8902 21.96 58.734 21.9845 58.549 22.037C58.503 22.0501 58.4538 22.0444 58.4121 22.0212C58.3703 21.998 58.3396 21.9591 58.3265 21.9132C58.3134 21.8673 58.3191 21.818 58.3423 21.7763C58.3655 21.7346 58.4044 21.7038 58.4503 21.6907C58.6416 21.6328 58.8401 21.6023 59.04 21.6ZM49.0442 22.68C49.999 22.68 50.85 23.3258 51.1135 24.251C51.1206 24.274 51.123 24.2981 51.1206 24.322C51.1183 24.3459 51.1111 24.369 51.0997 24.3901C51.0882 24.4112 51.0727 24.4298 51.0539 24.4448C51.0352 24.4597 51.0136 24.4708 50.9905 24.4774C50.9674 24.4839 50.9432 24.4857 50.9194 24.4828C50.8956 24.4798 50.8726 24.4722 50.8518 24.4602C50.831 24.4482 50.8128 24.4322 50.7983 24.4131C50.7837 24.394 50.7732 24.3722 50.7672 24.349C50.6602 23.9738 50.4345 23.6434 50.1238 23.4074C49.8132 23.1714 49.4344 23.0425 49.0442 23.04C48.96 23.04 48.8786 23.0501 48.798 23.0609C48.7508 23.067 48.703 23.0543 48.6652 23.0255C48.6273 22.9966 48.6023 22.954 48.5957 22.9068C48.5924 22.8834 48.5939 22.8596 48.5999 22.8367C48.6059 22.8138 48.6163 22.7924 48.6306 22.7736C48.645 22.7548 48.6629 22.739 48.6833 22.7271C48.7037 22.7153 48.7263 22.7076 48.7498 22.7045C48.8462 22.6915 48.9442 22.68 49.0442 22.68Z" fill="#472B29"/>
<path d="M11.16 41.76H3.96C3.86453 41.76 3.77296 41.7221 3.70544 41.6546C3.63793 41.587 3.6 41.4955 3.6 41.4C3.6 41.3045 3.63793 41.2129 3.70544 41.1454C3.77296 41.0779 3.86453 41.04 3.96 41.04H11.16C11.2555 41.04 11.347 41.0779 11.4146 41.1454C11.4821 41.2129 11.52 41.3045 11.52 41.4C11.52 41.4955 11.4821 41.587 11.4146 41.6546C11.347 41.7221 11.2555 41.76 11.16 41.76ZM13.32 41.76H12.6C12.5045 41.76 12.413 41.7221 12.3454 41.6546C12.2779 41.587 12.24 41.4955 12.24 41.4C12.24 41.3045 12.2779 41.2129 12.3454 41.1454C12.413 41.0779 12.5045 41.04 12.6 41.04H13.32C13.4155 41.04 13.507 41.0779 13.5746 41.1454C13.6421 41.2129 13.68 41.3045 13.68 41.4C13.68 41.4955 13.6421 41.587 13.5746 41.6546C13.507 41.7221 13.4155 41.76 13.32 41.76ZM16.9135 43.2H10.44C10.3445 43.2 10.253 43.1621 10.1854 43.0946C10.1179 43.027 10.08 42.9355 10.08 42.84C10.08 42.7445 10.1179 42.653 10.1854 42.5854C10.253 42.5179 10.3445 42.48 10.44 42.48H16.9135C17.009 42.48 17.1006 42.5179 17.1681 42.5854C17.2356 42.653 17.2735 42.7445 17.2735 42.84C17.2735 42.9355 17.2356 43.027 17.1681 43.0946C17.1006 43.1621 17.009 43.2 16.9135 43.2ZM9 43.2H8.28C8.18453 43.2 8.09296 43.1621 8.02544 43.0946C7.95793 43.027 7.92 42.9355 7.92 42.84C7.92 42.7445 7.95793 42.653 8.02544 42.5854C8.09296 42.5179 8.18453 42.48 8.28 42.48H9C9.09548 42.48 9.18705 42.5179 9.25456 42.5854C9.32207 42.653 9.36 42.7445 9.36 42.84C9.36 42.9355 9.32207 43.027 9.25456 43.0946C9.18705 43.1621 9.09548 43.2 9 43.2ZM6.84 43.2H5.4C5.30453 43.2 5.21296 43.1621 5.14544 43.0946C5.07793 43.027 5.04 42.9355 5.04 42.84C5.04 42.7445 5.07793 42.653 5.14544 42.5854C5.21296 42.5179 5.30453 42.48 5.4 42.48H6.84C6.93548 42.48 7.02705 42.5179 7.09456 42.5854C7.16207 42.653 7.2 42.7445 7.2 42.84C7.2 42.9355 7.16207 43.027 7.09456 43.0946C7.02705 43.1621 6.93548 43.2 6.84 43.2ZM11.16 44.64H9.72C9.62453 44.64 9.53296 44.6021 9.46544 44.5346C9.39793 44.467 9.36 44.3755 9.36 44.28C9.36 44.1845 9.39793 44.093 9.46544 44.0254C9.53296 43.9579 9.62453 43.92 9.72 43.92H11.16C11.2555 43.92 11.347 43.9579 11.4146 44.0254C11.4821 44.093 11.52 44.1845 11.52 44.28C11.52 44.3755 11.4821 44.467 11.4146 44.5346C11.347 44.6021 11.2555 44.64 11.16 44.64ZM13.32 38.16H12.6C12.5045 38.16 12.413 38.1979 12.3454 38.2654C12.2779 38.3329 12.24 38.4245 12.24 38.52C12.24 38.6155 12.2779 38.707 12.3454 38.7746C12.413 38.8421 12.5045 38.88 12.6 38.88H13.32C13.4155 38.88 13.507 38.8421 13.5746 38.7746C13.6421 38.707 13.68 38.6155 13.68 38.52C13.68 38.4245 13.6421 38.3329 13.5746 38.2654C13.507 38.1979 13.4155 38.16 13.32 38.16ZM13.32 39.6H9.72C9.62453 39.6 9.53296 39.6379 9.46544 39.7054C9.39793 39.7729 9.36 39.8645 9.36 39.96C9.36 40.0555 9.39793 40.147 9.46544 40.2146C9.53296 40.2821 9.62453 40.32 9.72 40.32H13.32C13.4155 40.32 13.507 40.2821 13.5746 40.2146C13.6421 40.147 13.68 40.0555 13.68 39.96C13.68 39.8645 13.6421 39.7729 13.5746 39.7054C13.507 39.6379 13.4155 39.6 13.32 39.6ZM16.92 41.04H14.76C14.6645 41.04 14.573 41.0779 14.5054 41.1454C14.4379 41.2129 14.4 41.3045 14.4 41.4C14.4 41.4955 14.4379 41.587 14.5054 41.6546C14.573 41.7221 14.6645 41.76 14.76 41.76H16.92C17.0155 41.76 17.107 41.7221 17.1746 41.6546C17.2421 41.587 17.28 41.4955 17.28 41.4C17.28 41.3045 17.2421 41.2129 17.1746 41.1454C17.107 41.0779 17.0155 41.04 16.92 41.04Z" fill="white"/>
<path d="M62.28 37.44H55.08C54.9845 37.44 54.893 37.4021 54.8254 37.3346C54.7579 37.267 54.72 37.1755 54.72 37.08C54.72 36.9845 54.7579 36.893 54.8254 36.8254C54.893 36.7579 54.9845 36.72 55.08 36.72H62.28C62.3755 36.72 62.467 36.7579 62.5346 36.8254C62.6021 36.893 62.64 36.9845 62.64 37.08C62.64 37.1755 62.6021 37.267 62.5346 37.3346C62.467 37.4021 62.3755 37.44 62.28 37.44ZM65.16 37.44H63.72C63.6245 37.44 63.533 37.4021 63.4654 37.3346C63.3979 37.267 63.36 37.1755 63.36 37.08C63.36 36.9845 63.3979 36.893 63.4654 36.8254C63.533 36.7579 63.6245 36.72 63.72 36.72H65.16C65.2555 36.72 65.347 36.7579 65.4146 36.8254C65.4821 36.893 65.52 36.9845 65.52 37.08C65.52 37.1755 65.4821 37.267 65.4146 37.3346C65.347 37.4021 65.2555 37.44 65.16 37.44ZM68.76 38.88H61.56C61.4645 38.88 61.373 38.8421 61.3054 38.7746C61.2379 38.707 61.2 38.6155 61.2 38.52C61.2 38.4245 61.2379 38.333 61.3054 38.2654C61.373 38.1979 61.4645 38.16 61.56 38.16H68.76C68.8555 38.16 68.947 38.1979 69.0146 38.2654C69.0821 38.333 69.12 38.4245 69.12 38.52C69.12 38.6155 69.0821 38.707 69.0146 38.7746C68.947 38.8421 68.8555 38.88 68.76 38.88ZM60.12 38.88H59.4C59.3045 38.88 59.213 38.8421 59.1454 38.7746C59.0779 38.707 59.04 38.6155 59.04 38.52C59.04 38.4245 59.0779 38.333 59.1454 38.2654C59.213 38.1979 59.3045 38.16 59.4 38.16H60.12C60.2155 38.16 60.307 38.1979 60.3746 38.2654C60.4421 38.333 60.48 38.4245 60.48 38.52C60.48 38.6155 60.4421 38.707 60.3746 38.7746C60.307 38.8421 60.2155 38.88 60.12 38.88ZM57.9384 38.88H56.52C56.4245 38.88 56.333 38.8421 56.2654 38.7746C56.1979 38.707 56.16 38.6155 56.16 38.52C56.16 38.4245 56.1979 38.333 56.2654 38.2654C56.333 38.1979 56.4245 38.16 56.52 38.16H57.9384C58.0339 38.16 58.1254 38.1979 58.193 38.2654C58.2605 38.333 58.2984 38.4245 58.2984 38.52C58.2984 38.6155 58.2605 38.707 58.193 38.7746C58.1254 38.8421 58.0339 38.88 57.9384 38.88ZM64.44 36H60.84C60.7445 36 60.653 35.9621 60.5854 35.8946C60.5179 35.827 60.48 35.7355 60.48 35.64C60.48 35.5445 60.5179 35.453 60.5854 35.3854C60.653 35.3179 60.7445 35.28 60.84 35.28H64.44C64.5355 35.28 64.627 35.3179 64.6946 35.3854C64.7621 35.453 64.8 35.5445 64.8 35.64C64.8 35.7355 64.7621 35.827 64.6946 35.8946C64.627 35.9621 64.5355 36 64.44 36ZM62.28 40.32H60.84C60.7445 40.32 60.653 40.2821 60.5854 40.2146C60.5179 40.147 60.48 40.0555 60.48 39.96C60.48 39.8645 60.5179 39.773 60.5854 39.7054C60.653 39.6379 60.7445 39.6 60.84 39.6H62.28C62.3755 39.6 62.467 39.6379 62.5346 39.7054C62.6021 39.773 62.64 39.8645 62.64 39.96C62.64 40.0555 62.6021 40.147 62.5346 40.2146C62.467 40.2821 62.3755 40.32 62.28 40.32Z" fill="white"/>
<path d="M14.76 32.04H12.24C11.5717 32.04 10.9307 31.7745 10.4581 31.3019C9.9855 30.8293 9.72 30.1883 9.72 29.52C9.72121 28.9087 9.94526 28.3189 10.3502 27.8609C10.7551 27.403 11.3131 27.1084 11.9196 27.0324C11.8962 26.9028 11.8829 26.7716 11.88 26.64C11.88 25.9717 12.1455 25.3307 12.6181 24.8581C13.0907 24.3855 13.7317 24.12 14.4 24.12C15.143 24.12 15.804 24.4476 16.2648 24.9588C16.4132 24.2631 16.8139 23.6469 17.3897 23.2291C17.9655 22.8113 18.6755 22.6215 19.383 22.6961C20.0904 22.7708 20.7452 23.1047 21.221 23.6336C21.6969 24.1624 21.9601 24.8486 21.96 25.56C21.96 25.6975 21.9384 25.8293 21.9197 25.9618C22.236 25.7033 22.6315 25.5614 23.04 25.56C23.9242 25.56 24.6564 26.1986 24.8076 27.0396C24.9365 27.0194 25.0654 27 25.2 27C25.8683 27 26.5093 27.2655 26.9819 27.7381C27.4545 28.2107 27.72 28.8517 27.72 29.52C27.72 30.1883 27.4545 30.8293 26.9819 31.3019C26.5093 31.7745 25.8683 32.04 25.2 32.04H19.8V32.4H14.76V32.04Z" fill="#FDFCEF"/>
<path d="M13.5 28.8C13.5477 28.8 13.5935 28.781 13.6273 28.7473C13.661 28.7135 13.68 28.6677 13.68 28.62C13.6796 28.1966 13.5113 27.7906 13.2118 27.4912C12.9124 27.1918 12.5065 27.0234 12.083 27.023C12.0586 27.0295 11.5524 27.0223 11.1874 27.121C11.1437 27.1354 11.1072 27.166 11.0854 27.2065C11.0636 27.247 11.0581 27.2943 11.0701 27.3387C11.082 27.3832 11.1106 27.4213 11.1498 27.4453C11.189 27.4694 11.236 27.4775 11.281 27.468C11.6006 27.3816 12.073 27.3816 12.0823 27.383C12.4104 27.3832 12.725 27.5136 12.957 27.7455C13.1891 27.9774 13.3196 28.2919 13.32 28.62C13.32 28.7194 13.4006 28.8 13.5 28.8Z" fill="#472B29"/>
<path d="M18.36 32.4C18.5588 32.4 18.72 32.2388 18.72 32.04C18.72 31.8412 18.5588 31.68 18.36 31.68C18.1612 31.68 18 31.8412 18 32.04C18 32.2388 18.1612 32.4 18.36 32.4Z" fill="#472B29"/>
<path d="M12.24 32.4H14.76C14.8555 32.4 14.947 32.3621 15.0146 32.2946C15.0821 32.227 15.12 32.1355 15.12 32.04C15.12 31.9445 15.0821 31.853 15.0146 31.7854C14.947 31.7179 14.8555 31.68 14.76 31.68H12.24C11.0491 31.68 10.08 30.7109 10.08 29.52C10.0823 28.9967 10.2748 28.492 10.6215 28.1C10.9683 27.7081 11.4458 27.4555 11.965 27.3895C12.0126 27.3832 12.0584 27.3674 12.0999 27.3431C12.1413 27.3189 12.1775 27.2866 12.2063 27.2482C12.2351 27.2098 12.256 27.166 12.2677 27.1194C12.2795 27.0729 12.2818 27.0244 12.2746 26.977C12.258 26.8661 12.24 26.7552 12.24 26.64C12.24 25.4491 13.2091 24.48 14.4 24.48C15.012 24.48 15.5794 24.7356 15.9977 25.2C16.0419 25.2497 16.0991 25.2862 16.1628 25.3052C16.2266 25.3243 16.2944 25.3253 16.3586 25.308C16.4229 25.2907 16.4811 25.2559 16.5267 25.2075C16.5723 25.159 16.6035 25.0989 16.6169 25.0337C16.739 24.4706 17.0498 23.966 17.4977 23.6035C17.9456 23.2409 18.5038 23.0422 19.08 23.04C20.4696 23.04 21.6 24.1704 21.6 25.56C21.6 25.663 21.5849 25.7616 21.5705 25.861C21.5496 26.0071 21.6158 26.1763 21.7447 26.2498C21.8736 26.3232 22.0298 26.3347 22.145 26.2426C22.3973 26.0352 22.7134 25.9213 23.04 25.92C23.7355 25.92 24.3302 26.4175 24.4534 27.1037C24.4698 27.1963 24.5219 27.2788 24.5985 27.3333C24.6752 27.3879 24.7702 27.4101 24.863 27.3953C24.9739 27.378 25.0848 27.36 25.2 27.36C26.3909 27.36 27.36 28.3291 27.36 29.52C27.36 30.7109 26.3909 31.68 25.2 31.68H19.8C19.7045 31.68 19.613 31.7179 19.5454 31.7854C19.4779 31.853 19.44 31.9445 19.44 32.04C19.44 32.1355 19.4779 32.227 19.5454 32.2946C19.613 32.3621 19.7045 32.4 19.8 32.4H25.2C26.7883 32.4 28.08 31.1083 28.08 29.52C28.0794 29.1315 28.0002 28.7471 27.8473 28.39C27.6944 28.0328 27.4709 27.7103 27.1902 27.4417C26.9095 27.1731 26.5774 26.964 26.2139 26.827C25.8504 26.69 25.4629 26.6278 25.0747 26.6443C24.9273 26.2223 24.6522 25.8565 24.2877 25.5977C23.9231 25.3389 23.4871 25.1999 23.04 25.2C22.7887 25.2 22.5439 25.2439 22.3121 25.3296C22.2528 24.5126 21.8867 23.7482 21.2872 23.19C20.6877 22.6317 19.8992 22.3209 19.08 22.32C18.4406 22.3226 17.816 22.5133 17.2843 22.8685C16.7525 23.2237 16.3371 23.7276 16.0898 24.3173C15.6 23.9569 15.0082 23.7617 14.4 23.76C14.0134 23.7605 13.6308 23.8388 13.2751 23.9902C12.9194 24.1416 12.5977 24.363 12.3293 24.6413C12.0609 24.9195 11.8512 25.2489 11.7126 25.6098C11.5741 25.9707 11.5096 26.3559 11.5229 26.7422C10.9059 26.9007 10.3588 27.2594 9.96745 27.762C9.57606 28.2647 9.36243 28.883 9.36 29.52C9.36 31.1083 10.6517 32.4 12.24 32.4Z" fill="#472B29"/>
<path d="M16.2 31.68H16.92C17.0155 31.68 17.107 31.7179 17.1746 31.7854C17.2421 31.853 17.28 31.9445 17.28 32.04C17.28 32.1355 17.2421 32.227 17.1746 32.2946C17.107 32.3621 17.0155 32.4 16.92 32.4H16.2C16.1045 32.4 16.013 32.3621 15.9454 32.2946C15.8779 32.227 15.84 32.1355 15.84 32.04C15.84 31.9445 15.8779 31.853 15.9454 31.7854C16.013 31.7179 16.1045 31.68 16.2 31.68Z" fill="#472B29"/>
<path d="M24.9898 51.336C24.986 51.264 24.9841 51.192 24.984 51.12C24.984 43.4577 31.0565 37.224 38.52 37.224C45.9835 37.224 52.056 43.4577 52.056 51.12C52.056 51.1927 52.0539 51.264 52.0502 51.336H24.9898Z" fill="#FBCD59"/>
<path d="M38.52 37.728C45.612 37.728 51.3994 43.5802 51.5491 50.832H25.4909C25.6406 43.5802 31.428 37.728 38.52 37.728ZM38.52 36.72C30.7656 36.72 24.48 43.1669 24.48 51.12C24.48 51.3626 24.5038 51.6002 24.5153 51.84H52.5247C52.5362 51.6002 52.56 51.3626 52.56 51.12C52.56 43.1669 46.2744 36.72 38.52 36.72Z" fill="#472B29"/>
<path d="M42.6888 40.8938C42.6619 40.8938 42.6353 40.8876 42.611 40.8758C41.7212 40.4487 40.7787 40.1414 39.8081 39.9622C39.7848 39.9579 39.7626 39.9491 39.7428 39.9363C39.7229 39.9234 39.7058 39.9068 39.6923 39.8874C39.6789 39.8679 39.6694 39.846 39.6644 39.8229C39.6595 39.7998 39.6591 39.7759 39.6634 39.7526C39.6676 39.7294 39.6764 39.7072 39.6892 39.6873C39.7021 39.6675 39.7187 39.6503 39.7381 39.6369C39.7576 39.6234 39.7795 39.614 39.8026 39.609C39.8258 39.604 39.8496 39.6037 39.8729 39.6079C40.8708 39.7908 41.8442 40.1083 42.7673 40.5511C42.8037 40.5691 42.833 40.5989 42.8505 40.6356C42.8679 40.6723 42.8724 40.7138 42.8634 40.7535C42.8543 40.7931 42.8321 40.8285 42.8005 40.854C42.7688 40.8794 42.7294 40.8935 42.6888 40.8938ZM49.3034 49.2228C49.2631 49.2228 49.2239 49.2093 49.1922 49.1843C49.1604 49.1594 49.138 49.1245 49.1285 49.0853C48.397 46.0836 46.6409 43.4923 44.1835 41.7902C44.1443 41.763 44.1175 41.7213 44.109 41.6743C44.1004 41.6274 44.111 41.5789 44.1382 41.5397C44.1654 41.5004 44.2071 41.4736 44.254 41.4651C44.301 41.4566 44.3495 41.4671 44.3887 41.4943C46.9188 43.2468 48.726 45.913 49.4784 49.0003C49.4847 49.0268 49.4849 49.0543 49.4791 49.0809C49.4732 49.1075 49.4615 49.1324 49.4446 49.1538C49.4278 49.1752 49.4064 49.1925 49.3819 49.2044C49.3575 49.2164 49.3307 49.2227 49.3034 49.2228ZM56.88 51.84H20.88C20.689 51.84 20.5059 51.7641 20.3709 51.6291C20.2359 51.4941 20.16 51.3109 20.16 51.12C20.16 50.929 20.2359 50.7459 20.3709 50.6109C20.5059 50.4758 20.689 50.4 20.88 50.4H56.88C57.071 50.4 57.2541 50.4758 57.3891 50.6109C57.5241 50.7459 57.6 50.929 57.6 51.12C57.6 51.3109 57.5241 51.4941 57.3891 51.6291C57.2541 51.7641 57.071 51.84 56.88 51.84Z" fill="#472B29"/>
<path d="M43.8401 22.7599L38.52 17.4398L33.1999 22.7599L34.727 24.287L37.44 21.5748V28.8H39.6V21.5748L42.313 24.287L43.8401 22.7599Z" fill="#00A5A5"/>
<path d="M39.6 28.98H37.44C37.3923 28.98 37.3465 28.961 37.3127 28.9273C37.279 28.8935 37.26 28.8477 37.26 28.8V22.009L34.8545 24.4145C34.8378 24.4312 34.8179 24.4445 34.796 24.4536C34.7742 24.4627 34.7507 24.4674 34.727 24.4674C34.7034 24.4674 34.6799 24.4627 34.6581 24.4536C34.6362 24.4445 34.6163 24.4312 34.5996 24.4145L33.0725 22.8874C33.0557 22.8706 33.0424 22.8508 33.0333 22.8289C33.0243 22.807 33.0196 22.7836 33.0196 22.7599C33.0196 22.7362 33.0243 22.7128 33.0333 22.6909C33.0424 22.6691 33.0557 22.6492 33.0725 22.6325L38.3926 17.3117C38.427 17.279 38.4726 17.2608 38.52 17.2608C38.5674 17.2608 38.6131 17.279 38.6474 17.3117L43.9675 22.6325C43.9843 22.6492 43.9976 22.6691 44.0067 22.6909C44.0157 22.7128 44.0204 22.7362 44.0204 22.7599C44.0204 22.7836 44.0157 22.807 44.0067 22.8289C43.9976 22.8508 43.9843 22.8706 43.9675 22.8874L42.4404 24.4145C42.4237 24.4312 42.4038 24.4445 42.382 24.4536C42.3601 24.4627 42.3366 24.4674 42.313 24.4674C42.2893 24.4674 42.2658 24.4627 42.244 24.4536C42.2221 24.4445 42.2022 24.4312 42.1855 24.4145L39.78 22.009V28.8C39.78 28.8477 39.761 28.8935 39.7273 28.9273C39.6935 28.961 39.6477 28.98 39.6 28.98ZM37.62 28.62H39.42V21.5748C39.42 21.5392 39.4305 21.5044 39.4502 21.4748C39.47 21.4452 39.498 21.4221 39.5309 21.4085C39.5986 21.3797 39.6749 21.3962 39.7267 21.4474L42.3122 24.0329L43.5852 22.7599L38.52 17.694L33.4548 22.7599L34.7278 24.0329L37.3133 21.4474C37.3385 21.4224 37.3705 21.4054 37.4054 21.3986C37.4402 21.3917 37.4763 21.3953 37.5091 21.409C37.5419 21.4226 37.5699 21.4456 37.5896 21.4751C37.6094 21.5046 37.6199 21.5393 37.62 21.5748V28.62ZM31.7736 36.9173C31.7048 36.9172 31.6374 36.8975 31.5795 36.8604C31.5216 36.8232 31.4755 36.7703 31.4467 36.7078L29.9398 33.4382C29.9184 33.3951 29.9059 33.3481 29.903 33.3001C29.9001 33.252 29.9069 33.2039 29.9229 33.1585C29.939 33.1131 29.964 33.0714 29.9964 33.0358C30.0288 33.0003 30.0681 32.9716 30.1118 32.9514C30.1555 32.9313 30.2029 32.9201 30.251 32.9186C30.2991 32.9171 30.347 32.9252 30.3919 32.9426C30.4368 32.9599 30.4778 32.9861 30.5125 33.0195C30.5471 33.0529 30.5746 33.093 30.5935 33.1373L32.1005 36.4068C32.1257 36.4616 32.1368 36.5219 32.1326 36.5822C32.1284 36.6424 32.1092 36.7006 32.0766 36.7514C32.0441 36.8022 31.9993 36.8441 31.9463 36.8731C31.8934 36.902 31.834 36.9172 31.7736 36.9173ZM26.3311 41.2279C26.2453 41.228 26.1623 41.1974 26.0971 41.1415L23.3604 38.8022C23.3245 38.7715 23.2949 38.734 23.2735 38.6919C23.2521 38.6497 23.2392 38.6038 23.2355 38.5566C23.2318 38.5095 23.2374 38.4621 23.2521 38.4171C23.2667 38.3722 23.2901 38.3306 23.3208 38.2946C23.3515 38.2587 23.389 38.2292 23.4312 38.2077C23.4733 38.1863 23.5193 38.1734 23.5664 38.1697C23.6135 38.166 23.6609 38.1717 23.7059 38.1863C23.7508 38.201 23.7925 38.2243 23.8284 38.255L26.5651 40.5943C26.6211 40.6421 26.661 40.706 26.6795 40.7772C26.6981 40.8484 26.6944 40.9236 26.6689 40.9926C26.6434 41.0617 26.5973 41.1212 26.5369 41.1633C26.4765 41.2054 26.4047 41.2279 26.3311 41.2279ZM23.1926 47.4206C23.1595 47.4207 23.1266 47.4161 23.0947 47.407L19.6301 46.4278C19.5411 46.3994 19.4666 46.3376 19.4223 46.2554C19.378 46.1732 19.3674 46.077 19.3927 45.9871C19.418 45.8972 19.4773 45.8206 19.558 45.7736C19.6387 45.7266 19.7345 45.7128 19.8252 45.7351L23.2898 46.7143C23.3733 46.738 23.4455 46.7911 23.4929 46.8637C23.5404 46.9364 23.56 47.0237 23.5482 47.1097C23.5364 47.1957 23.4939 47.2745 23.4285 47.3316C23.3632 47.3888 23.2794 47.4204 23.1926 47.4206ZM38.448 35.28C38.3525 35.28 38.261 35.2421 38.1934 35.1746C38.1259 35.107 38.088 35.0155 38.088 34.92V31.32C38.088 31.2245 38.1259 31.1329 38.1934 31.0654C38.261 30.9979 38.3525 30.96 38.448 30.96C38.5435 30.96 38.6351 30.9979 38.7026 31.0654C38.7701 31.1329 38.808 31.2245 38.808 31.32V34.92C38.808 35.0155 38.7701 35.107 38.7026 35.1746C38.6351 35.2421 38.5435 35.28 38.448 35.28ZM45.1951 36.9173C45.1348 36.9172 45.0754 36.902 45.0224 36.8731C44.9695 36.8441 44.9247 36.8022 44.8921 36.7514C44.8596 36.7006 44.8403 36.6424 44.8361 36.5822C44.832 36.5219 44.843 36.4616 44.8682 36.4068L46.3752 33.1373C46.4168 33.0533 46.4895 32.9889 46.5778 32.9576C46.6662 32.9264 46.7632 32.9309 46.8483 32.9701C46.9334 33.0092 46.9999 33.0801 47.0337 33.1675C47.0674 33.2549 47.0657 33.352 47.029 33.4382L45.522 36.7078C45.4933 36.7703 45.4473 36.8233 45.3893 36.8605C45.3314 36.8976 45.264 36.9173 45.1951 36.9173ZM50.6369 41.2279C50.5633 41.2279 50.4915 41.2054 50.4311 41.1633C50.3707 41.1212 50.3246 41.0617 50.2992 40.9926C50.2737 40.9236 50.2699 40.8484 50.2885 40.7772C50.307 40.706 50.347 40.6421 50.4029 40.5943L53.1396 38.255C53.2122 38.193 53.3064 38.1623 53.4016 38.1697C53.4968 38.1771 53.5851 38.2221 53.6472 38.2946C53.7093 38.3672 53.74 38.4614 53.7325 38.5566C53.7251 38.6518 53.6802 38.7402 53.6076 38.8022L50.8709 41.1415C50.8058 41.1975 50.7227 41.2282 50.6369 41.2279ZM53.7754 47.4206C53.6886 47.4204 53.6048 47.3888 53.5395 47.3316C53.4741 47.2745 53.4317 47.1957 53.4198 47.1097C53.408 47.0237 53.4276 46.9364 53.4751 46.8637C53.5226 46.7911 53.5947 46.738 53.6782 46.7143L57.1428 45.7351C57.1888 45.7205 57.2373 45.7152 57.2854 45.7197C57.3335 45.7242 57.3802 45.7383 57.4227 45.7612C57.4652 45.7841 57.5026 45.8154 57.5328 45.853C57.563 45.8907 57.5854 45.9341 57.5985 45.9806C57.6115 46.027 57.6152 46.0757 57.6091 46.1236C57.603 46.1715 57.5873 46.2177 57.563 46.2594C57.5387 46.3011 57.5062 46.3375 57.4676 46.3664C57.4289 46.3954 57.3848 46.4162 57.3379 46.4278L53.8733 47.407C53.8414 47.4157 53.8085 47.4203 53.7754 47.4206Z" fill="#472B29"/>
</svg>
