<svg width="73" height="73" viewBox="0 0 73 73" fill="none" xmlns="http://www.w3.org/2000/svg">
<path d="M63.6669 41.3983C64.5236 39.7762 64.9709 37.9694 64.97 36.135C64.97 31.3017 61.9339 27.1874 57.6693 25.566L57.67 25.55C57.67 17.0834 50.8065 10.22 42.34 10.22C35.1977 10.22 29.2139 15.1117 27.5115 21.7226C26.4076 21.3577 25.2526 21.1712 24.09 21.17C18.4748 21.17 13.8532 25.3989 13.2203 30.8439C9.42137 31.6477 6.56999 35.0174 6.56999 39.055C6.56999 43.6912 10.3288 47.45 14.965 47.45C15.0942 47.45 15.222 47.4412 15.349 47.4339C15.3461 47.5617 15.33 47.6865 15.33 47.815C15.33 56.08 22.0299 62.78 30.295 62.78C34.994 62.78 39.1827 60.6104 41.9268 57.2218C42.7399 58.0571 43.7122 58.7209 44.7863 59.174C45.8603 59.6272 47.0143 59.8604 48.18 59.86C51.5745 59.86 54.512 57.9255 55.9662 55.1018C56.7341 55.3464 57.551 55.48 58.4 55.48C62.8347 55.48 66.43 51.8847 66.43 47.45C66.43 45.033 65.3569 42.8707 63.6669 41.3983Z" fill="#F6B6A1"/>
<path d="M55.845 29.565V29.93H53.655V29.565H49.64C48.7688 29.565 47.9332 29.2189 47.3171 28.6028C46.7011 27.9868 46.355 27.1512 46.355 26.28C46.355 24.5769 47.6559 23.1928 49.3151 23.0278C49.2991 22.8957 49.275 22.7665 49.275 22.63C49.275 21.7588 49.6211 20.9232 50.2371 20.3072C50.8532 19.6911 51.6888 19.345 52.56 19.345C53.6097 19.345 54.5332 19.8458 55.1347 20.6123C55.2369 18.688 56.8152 17.155 58.765 17.155C59.733 17.155 60.6614 17.5396 61.3459 18.2241C62.0305 18.9086 62.415 19.837 62.415 20.805C62.415 21.1306 62.3588 21.4401 62.2785 21.7409C62.5157 21.4493 62.8147 21.2141 63.1539 21.0522C63.4932 20.8904 63.8641 20.8059 64.24 20.805C64.8598 20.8062 65.4578 21.0334 65.9221 21.4439C66.3864 21.8545 66.6851 22.4202 66.7622 23.0351C66.8943 23.0191 67.0235 22.995 67.16 22.995C68.0312 22.995 68.8668 23.3411 69.4829 23.9572C70.0989 24.5732 70.445 25.4088 70.445 26.28C70.445 27.1512 70.0989 27.9868 69.4829 28.6028C68.8668 29.2189 68.0312 29.565 67.16 29.565H55.845Z" fill="#FDFCEF"/>
<path d="M58.765 16.79C60.9791 16.79 62.78 18.5909 62.78 20.805V20.8393C63.2222 20.578 63.7264 20.4401 64.24 20.44C64.886 20.4424 65.513 20.659 66.0227 21.056C66.5323 21.453 66.8959 22.0079 67.0563 22.6336C67.0908 22.6313 67.1254 22.6301 67.16 22.63C69.1726 22.63 70.81 24.2674 70.81 26.28C70.81 28.2926 69.1726 29.93 67.16 29.93H55.845C55.7482 29.93 55.6554 29.8915 55.5869 29.8231C55.5185 29.7546 55.48 29.6618 55.48 29.565C55.48 29.4682 55.5185 29.3754 55.5869 29.3069C55.6554 29.2385 55.7482 29.2 55.845 29.2H67.16C68.7704 29.2 70.08 27.8904 70.08 26.28C70.08 24.6696 68.7704 23.36 67.16 23.36C67.0746 23.36 66.9921 23.3724 66.9096 23.3834L66.8067 23.3972C66.711 23.4086 66.6146 23.3818 66.5385 23.3227C66.4624 23.2635 66.4126 23.1767 66.4001 23.0811C66.3331 22.5548 66.0771 22.0707 65.6797 21.7191C65.2823 21.3674 64.7706 21.1723 64.24 21.17C63.5939 21.17 62.9822 21.4627 62.5603 21.973C62.507 22.0368 62.4337 22.0806 62.3522 22.0973C62.2708 22.114 62.1861 22.1026 62.112 22.065C62.0381 22.0268 61.9794 21.9646 61.9457 21.8885C61.9119 21.8124 61.9052 21.7271 61.9266 21.6467C62.0045 21.3727 62.0459 21.0898 62.05 20.805C62.05 18.9939 60.5761 17.52 58.765 17.52C57.0269 17.52 55.5917 18.8866 55.499 20.632C55.4951 20.7062 55.4686 20.7775 55.4231 20.8362C55.3776 20.895 55.3153 20.9385 55.2444 20.9609C55.1735 20.9833 55.0975 20.9835 55.0265 20.9615C54.9555 20.9395 54.8929 20.8964 54.8471 20.8378C54.5771 20.4879 54.2307 20.2043 53.8343 20.0089C53.4378 19.8134 53.002 19.7111 52.56 19.71C50.9496 19.71 49.64 21.0196 49.64 22.63C49.64 22.7154 49.6524 22.7979 49.6634 22.8804L49.6772 22.9833C49.6831 23.0315 49.6793 23.0804 49.666 23.1271C49.6528 23.1739 49.6303 23.2175 49.6 23.2554C49.5697 23.2933 49.5321 23.3248 49.4895 23.3481C49.4468 23.3713 49.4 23.3858 49.3516 23.3907C48.632 23.4581 47.9634 23.7916 47.4767 24.326C46.9899 24.8604 46.7201 25.5572 46.72 26.28C46.72 27.8904 48.0296 29.2 49.64 29.2H53.655C53.7518 29.2 53.8446 29.2385 53.9131 29.3069C53.9815 29.3754 54.02 29.4682 54.02 29.565C54.02 29.6618 53.9815 29.7546 53.9131 29.8231C53.8446 29.8915 53.7518 29.93 53.655 29.93H49.64C47.6274 29.93 45.99 28.2926 45.99 26.28C45.9891 25.4399 46.28 24.6256 46.813 23.9762C47.346 23.3268 48.088 22.8827 48.9122 22.7198C48.9008 22.2333 48.9867 21.7494 49.1649 21.2966C49.343 20.8438 49.6098 20.4311 49.9496 20.0827C50.2893 19.7344 50.6953 19.4574 51.1435 19.268C51.5918 19.0787 52.0734 18.9807 52.56 18.98C53.4185 18.98 54.2339 19.2837 54.8836 19.8297C55.0989 18.9627 55.5978 18.1926 56.3011 17.6418C57.0044 17.091 57.8717 16.7912 58.765 16.79Z" fill="#472B29"/>
<path d="M59.86 21.9C60.8842 21.9 61.7646 22.6293 61.9865 23.6089C62.2532 23.4468 62.5591 23.3607 62.8712 23.36C63.7487 23.36 64.4758 24.0148 64.5889 24.8696C64.729 24.8371 64.8722 24.8205 65.016 24.82C65.5571 24.8227 66.0772 25.0296 66.4721 25.3994C66.8671 25.7693 67.1078 26.2746 67.1461 26.8143C67.1493 26.8627 67.1334 26.9103 67.1017 26.947C67.0699 26.9836 67.0251 27.0062 66.9768 27.01H66.9636C66.9175 27.0099 66.8732 26.9924 66.8395 26.961C66.8058 26.9296 66.7852 26.8866 66.7819 26.8406C66.7502 26.3929 66.5508 25.9737 66.2234 25.6667C65.896 25.3598 65.4648 25.1877 65.016 25.185C64.8488 25.185 64.6729 25.2156 64.4772 25.2777C64.4614 25.2826 64.4449 25.2851 64.4283 25.285C64.4034 25.2848 64.3788 25.2797 64.3558 25.27C64.3329 25.2603 64.312 25.2461 64.2945 25.2284C64.2771 25.2106 64.2632 25.1896 64.2539 25.1665C64.2445 25.1434 64.2398 25.1187 64.24 25.0937C64.2396 24.7308 64.0953 24.3829 63.8387 24.1263C63.5821 23.8697 63.2341 23.7254 62.8712 23.725C62.5449 23.725 62.2252 23.8476 61.9726 24.0703C61.9393 24.0996 61.8965 24.116 61.8522 24.1163C61.8288 24.1164 61.8057 24.1117 61.7843 24.1024C61.7528 24.0898 61.7254 24.0687 61.7054 24.0413C61.6854 24.0139 61.6735 23.9815 61.6711 23.9476C61.5952 23.0037 60.8002 22.265 59.86 22.265C59.7082 22.265 59.5497 22.2898 59.3621 22.3431C59.3156 22.3564 59.2656 22.3506 59.2233 22.327C59.181 22.3035 59.1498 22.2641 59.1366 22.2175C59.1233 22.171 59.1291 22.121 59.1526 22.0787C59.1762 22.0364 59.2156 22.0052 59.2621 21.992C59.4561 21.9332 59.6574 21.9023 59.86 21.9ZM49.7254 22.995C50.6934 22.995 51.5562 23.6498 51.8234 24.5878C51.8306 24.6111 51.8331 24.6355 51.8307 24.6598C51.8282 24.684 51.821 24.7075 51.8094 24.7288C51.7978 24.7502 51.782 24.7691 51.763 24.7842C51.744 24.7994 51.7221 24.8107 51.6987 24.8173C51.6753 24.8239 51.6508 24.8258 51.6266 24.8228C51.6025 24.8198 51.5792 24.812 51.5581 24.7999C51.537 24.7878 51.5185 24.7715 51.5038 24.7522C51.4891 24.7328 51.4784 24.7107 51.4723 24.6871C51.3638 24.3067 51.1349 23.9718 50.82 23.7325C50.505 23.4932 50.121 23.3625 49.7254 23.36C49.64 23.36 49.5575 23.3702 49.4758 23.3811C49.4279 23.3874 49.3795 23.3745 49.3411 23.3452C49.3026 23.316 49.2773 23.2727 49.2706 23.2249C49.2673 23.2012 49.2688 23.177 49.2749 23.1539C49.2809 23.1307 49.2915 23.1089 49.3061 23.0899C49.3206 23.0708 49.3387 23.0548 49.3595 23.0428C49.3802 23.0308 49.4031 23.0229 49.4268 23.0198C49.5247 23.0067 49.6239 22.995 49.7254 22.995Z" fill="#472B29"/>
<path d="M11.315 42.34H4.01501C3.91821 42.34 3.82537 42.3015 3.75692 42.2331C3.68846 42.1646 3.65001 42.0718 3.65001 41.975C3.65001 41.8782 3.68846 41.7854 3.75692 41.7169C3.82537 41.6485 3.91821 41.61 4.01501 41.61H11.315C11.4118 41.61 11.5047 41.6485 11.5731 41.7169C11.6416 41.7854 11.68 41.8782 11.68 41.975C11.68 42.0718 11.6416 42.1646 11.5731 42.2331C11.5047 42.3015 11.4118 42.34 11.315 42.34ZM13.505 42.34H12.775C12.6782 42.34 12.5854 42.3015 12.5169 42.2331C12.4485 42.1646 12.41 42.0718 12.41 41.975C12.41 41.8782 12.4485 41.7854 12.5169 41.7169C12.5854 41.6485 12.6782 41.61 12.775 41.61H13.505C13.6018 41.61 13.6947 41.6485 13.7631 41.7169C13.8316 41.7854 13.87 41.8782 13.87 41.975C13.87 42.0718 13.8316 42.1646 13.7631 42.2331C13.6947 42.3015 13.6018 42.34 13.505 42.34ZM17.1484 43.8H10.585C10.4882 43.8 10.3954 43.7615 10.3269 43.6931C10.2585 43.6246 10.22 43.5318 10.22 43.435C10.22 43.3382 10.2585 43.2454 10.3269 43.1769C10.3954 43.1085 10.4882 43.07 10.585 43.07H17.1484C17.2452 43.07 17.3381 43.1085 17.4065 43.1769C17.475 43.2454 17.5134 43.3382 17.5134 43.435C17.5134 43.5318 17.475 43.6246 17.4065 43.6931C17.3381 43.7615 17.2452 43.8 17.1484 43.8ZM9.12501 43.8H8.39501C8.2982 43.8 8.20537 43.7615 8.13691 43.6931C8.06846 43.6246 8.03001 43.5318 8.03001 43.435C8.03001 43.3382 8.06846 43.2454 8.13691 43.1769C8.20537 43.1085 8.2982 43.07 8.39501 43.07H9.12501C9.22181 43.07 9.31465 43.1085 9.3831 43.1769C9.45155 43.2454 9.49001 43.3382 9.49001 43.435C9.49001 43.5318 9.45155 43.6246 9.3831 43.6931C9.31465 43.7615 9.22181 43.8 9.12501 43.8ZM6.93501 43.8H5.47501C5.37821 43.8 5.28537 43.7615 5.21692 43.6931C5.14846 43.6246 5.11001 43.5318 5.11001 43.435C5.11001 43.3382 5.14846 43.2454 5.21692 43.1769C5.28537 43.1085 5.37821 43.07 5.47501 43.07H6.93501C7.03181 43.07 7.12465 43.1085 7.1931 43.1769C7.26155 43.2454 7.30001 43.3382 7.30001 43.435C7.30001 43.5318 7.26155 43.6246 7.1931 43.6931C7.12465 43.7615 7.03181 43.8 6.93501 43.8ZM11.315 45.26H9.85501C9.7582 45.26 9.66537 45.2215 9.59691 45.1531C9.52846 45.0846 9.49001 44.9918 9.49001 44.895C9.49001 44.7982 9.52846 44.7054 9.59691 44.6369C9.66537 44.5685 9.7582 44.53 9.85501 44.53H11.315C11.4118 44.53 11.5047 44.5685 11.5731 44.6369C11.6416 44.7054 11.68 44.7982 11.68 44.895C11.68 44.9918 11.6416 45.0846 11.5731 45.1531C11.5047 45.2215 11.4118 45.26 11.315 45.26ZM13.505 38.69H12.775C12.6782 38.69 12.5854 38.7284 12.5169 38.7969C12.4485 38.8654 12.41 38.9582 12.41 39.055C12.41 39.1518 12.4485 39.2446 12.5169 39.3131C12.5854 39.3815 12.6782 39.42 12.775 39.42H13.505C13.6018 39.42 13.6947 39.3815 13.7631 39.3131C13.8316 39.2446 13.87 39.1518 13.87 39.055C13.87 38.9582 13.8316 38.8654 13.7631 38.7969C13.6947 38.7284 13.6018 38.69 13.505 38.69ZM13.505 40.15H9.85501C9.7582 40.15 9.66537 40.1885 9.59691 40.2569C9.52846 40.3254 9.49001 40.4182 9.49001 40.515C9.49001 40.6118 9.52846 40.7046 9.59691 40.7731C9.66537 40.8415 9.7582 40.88 9.85501 40.88H13.505C13.6018 40.88 13.6947 40.8415 13.7631 40.7731C13.8316 40.7046 13.87 40.6118 13.87 40.515C13.87 40.4182 13.8316 40.3254 13.7631 40.2569C13.6947 40.1885 13.6018 40.15 13.505 40.15ZM17.155 41.61H14.965C14.8682 41.61 14.7754 41.6485 14.7069 41.7169C14.6385 41.7854 14.6 41.8782 14.6 41.975C14.6 42.0718 14.6385 42.1646 14.7069 42.2331C14.7754 42.3015 14.8682 42.34 14.965 42.34H17.155C17.2518 42.34 17.3447 42.3015 17.4131 42.2331C17.4816 42.1646 17.52 42.0718 17.52 41.975C17.52 41.8782 17.4816 41.7854 17.4131 41.7169C17.3447 41.6485 17.2518 41.61 17.155 41.61Z" fill="white"/>
<path d="M63.145 37.96H55.845C55.7482 37.96 55.6554 37.9215 55.5869 37.8531C55.5185 37.7846 55.48 37.6918 55.48 37.595C55.48 37.4982 55.5185 37.4054 55.5869 37.3369C55.6554 37.2685 55.7482 37.23 55.845 37.23H63.145C63.2418 37.23 63.3346 37.2685 63.4031 37.3369C63.4715 37.4054 63.51 37.4982 63.51 37.595C63.51 37.6918 63.4715 37.7846 63.4031 37.8531C63.3346 37.9215 63.2418 37.96 63.145 37.96ZM66.065 37.96H64.605C64.5082 37.96 64.4154 37.9215 64.3469 37.8531C64.2785 37.7846 64.24 37.6918 64.24 37.595C64.24 37.4982 64.2785 37.4054 64.3469 37.3369C64.4154 37.2685 64.5082 37.23 64.605 37.23H66.065C66.1618 37.23 66.2546 37.2685 66.3231 37.3369C66.3915 37.4054 66.43 37.4982 66.43 37.595C66.43 37.6918 66.3915 37.7846 66.3231 37.8531C66.2546 37.9215 66.1618 37.96 66.065 37.96ZM69.715 39.42H62.415C62.3182 39.42 62.2254 39.3815 62.1569 39.3131C62.0885 39.2446 62.05 39.1518 62.05 39.055C62.05 38.9582 62.0885 38.8654 62.1569 38.7969C62.2254 38.7285 62.3182 38.69 62.415 38.69H69.715C69.8118 38.69 69.9046 38.7285 69.9731 38.7969C70.0415 38.8654 70.08 38.9582 70.08 39.055C70.08 39.1518 70.0415 39.2446 69.9731 39.3131C69.9046 39.3815 69.8118 39.42 69.715 39.42ZM60.955 39.42H60.225C60.1282 39.42 60.0354 39.3815 59.9669 39.3131C59.8985 39.2446 59.86 39.1518 59.86 39.055C59.86 38.9582 59.8985 38.8654 59.9669 38.7969C60.0354 38.7285 60.1282 38.69 60.225 38.69H60.955C61.0518 38.69 61.1446 38.7285 61.2131 38.7969C61.2815 38.8654 61.32 38.9582 61.32 39.055C61.32 39.1518 61.2815 39.2446 61.2131 39.3131C61.1446 39.3815 61.0518 39.42 60.955 39.42ZM58.7431 39.42H57.305C57.2082 39.42 57.1154 39.3815 57.0469 39.3131C56.9785 39.2446 56.94 39.1518 56.94 39.055C56.94 38.9582 56.9785 38.8654 57.0469 38.7969C57.1154 38.7285 57.2082 38.69 57.305 38.69H58.7431C58.8399 38.69 58.9327 38.7285 59.0012 38.7969C59.0696 38.8654 59.1081 38.9582 59.1081 39.055C59.1081 39.1518 59.0696 39.2446 59.0012 39.3131C58.9327 39.3815 58.8399 39.42 58.7431 39.42ZM65.335 36.5H61.685C61.5882 36.5 61.4954 36.4615 61.4269 36.3931C61.3585 36.3246 61.32 36.2318 61.32 36.135C61.32 36.0382 61.3585 35.9454 61.4269 35.8769C61.4954 35.8085 61.5882 35.77 61.685 35.77H65.335C65.4318 35.77 65.5246 35.8085 65.5931 35.8769C65.6615 35.9454 65.7 36.0382 65.7 36.135C65.7 36.2318 65.6615 36.3246 65.5931 36.3931C65.5246 36.4615 65.4318 36.5 65.335 36.5ZM63.145 40.88H61.685C61.5882 40.88 61.4954 40.8415 61.4269 40.7731C61.3585 40.7046 61.32 40.6118 61.32 40.515C61.32 40.4182 61.3585 40.3254 61.4269 40.2569C61.4954 40.1885 61.5882 40.15 61.685 40.15H63.145C63.2418 40.15 63.3346 40.1885 63.4031 40.2569C63.4715 40.3254 63.51 40.4182 63.51 40.515C63.51 40.6118 63.4715 40.7046 63.4031 40.7731C63.3346 40.8415 63.2418 40.88 63.145 40.88Z" fill="white"/>
<path d="M14.965 32.485H12.41C11.7324 32.485 11.0825 32.2158 10.6033 31.7366C10.1242 31.2575 9.855 30.6076 9.855 29.93C9.85622 29.3102 10.0834 28.7122 10.4939 28.2479C10.9045 27.7836 11.4702 27.4849 12.0851 27.4078C12.0614 27.2765 12.048 27.1434 12.045 27.01C12.045 26.3323 12.3142 25.6825 12.7933 25.2033C13.2725 24.7242 13.9224 24.455 14.6 24.455C15.3534 24.455 16.0235 24.7871 16.4907 25.3054C16.6412 24.6 17.0475 23.9753 17.6312 23.5517C18.215 23.1281 18.9349 22.9356 19.6522 23.0113C20.3695 23.0871 21.0333 23.4256 21.5158 23.9618C21.9982 24.4979 22.2651 25.1937 22.265 25.915C22.265 26.0544 22.2431 26.188 22.2241 26.3223C22.5448 26.0603 22.9459 25.9164 23.36 25.915C24.2564 25.915 24.9988 26.5625 25.1521 27.4151C25.2828 27.3947 25.4135 27.375 25.55 27.375C26.2276 27.375 26.8775 27.6442 27.3567 28.1233C27.8358 28.6025 28.105 29.2523 28.105 29.93C28.105 30.6076 27.8358 31.2575 27.3567 31.7366C26.8775 32.2158 26.2276 32.485 25.55 32.485H20.075V32.85H14.965V32.485Z" fill="#FDFCEF"/>
<path d="M13.6875 29.2C13.7359 29.2 13.7823 29.1808 13.8166 29.1466C13.8508 29.1123 13.87 29.0659 13.87 29.0175C13.8696 28.5882 13.6989 28.1766 13.3953 27.873C13.0918 27.5695 12.6802 27.3988 12.2509 27.3984C12.226 27.4049 11.7129 27.3976 11.3427 27.4976C11.2985 27.5123 11.2615 27.5433 11.2393 27.5844C11.2172 27.6254 11.2117 27.6734 11.2238 27.7185C11.236 27.7635 11.2649 27.8022 11.3047 27.8265C11.3444 27.8509 11.392 27.8591 11.4376 27.8495C11.7618 27.7619 12.2406 27.7619 12.2501 27.7634C12.5828 27.7636 12.9017 27.8957 13.137 28.1309C13.3723 28.366 13.5046 28.6849 13.505 29.0175C13.505 29.1183 13.5868 29.2 13.6875 29.2Z" fill="#472B29"/>
<path d="M18.615 32.85C18.8166 32.85 18.98 32.6866 18.98 32.485C18.98 32.2834 18.8166 32.12 18.615 32.12C18.4134 32.12 18.25 32.2834 18.25 32.485C18.25 32.6866 18.4134 32.85 18.615 32.85Z" fill="#472B29"/>
<path d="M12.41 32.85H14.965C15.0618 32.85 15.1546 32.8115 15.2231 32.7431C15.2916 32.6746 15.33 32.5818 15.33 32.485C15.33 32.3882 15.2916 32.2953 15.2231 32.2269C15.1546 32.1584 15.0618 32.12 14.965 32.12H12.41C11.2026 32.12 10.22 31.1374 10.22 29.93C10.2223 29.3994 10.4175 28.8877 10.7691 28.4903C11.1207 28.0929 11.6048 27.8369 12.1311 27.7699C12.1794 27.7635 12.2259 27.7475 12.2679 27.7229C12.3099 27.6983 12.3466 27.6656 12.3758 27.6266C12.4051 27.5877 12.4262 27.5433 12.4381 27.4961C12.45 27.4489 12.4524 27.3998 12.445 27.3516C12.4283 27.2392 12.41 27.1268 12.41 27.01C12.41 25.8026 13.3926 24.82 14.6 24.82C15.2205 24.82 15.7957 25.0791 16.2199 25.55C16.2647 25.6004 16.3227 25.6373 16.3873 25.6567C16.4519 25.676 16.5207 25.677 16.5858 25.6595C16.651 25.642 16.71 25.6067 16.7562 25.5576C16.8025 25.5085 16.8341 25.4474 16.8477 25.3814C16.9715 24.8104 17.2866 24.2988 17.7407 23.9313C18.1948 23.5637 18.7608 23.3622 19.345 23.36C20.7539 23.36 21.9 24.5061 21.9 25.915C21.9 26.0194 21.8847 26.1194 21.8701 26.2201C21.8489 26.3683 21.9161 26.5399 22.0467 26.6143C22.1774 26.6888 22.3358 26.7005 22.4526 26.607C22.7084 26.3968 23.0289 26.2813 23.36 26.28C24.0652 26.28 24.6682 26.7844 24.793 27.4801C24.8096 27.574 24.8625 27.6576 24.9402 27.7129C25.0179 27.7682 25.1142 27.7908 25.2084 27.7758C25.3208 27.7582 25.4332 27.74 25.55 27.74C26.7574 27.74 27.74 28.7226 27.74 29.93C27.74 31.1374 26.7574 32.12 25.55 32.12H20.075C19.9782 32.12 19.8854 32.1584 19.8169 32.2269C19.7485 32.2953 19.71 32.3882 19.71 32.485C19.71 32.5818 19.7485 32.6746 19.8169 32.7431C19.8854 32.8115 19.9782 32.85 20.075 32.85H25.55C27.1604 32.85 28.47 31.5404 28.47 29.93C28.4694 29.5361 28.3891 29.1464 28.2341 28.7843C28.0791 28.4222 27.8525 28.0951 27.5679 27.8228C27.2833 27.5505 26.9466 27.3385 26.578 27.1996C26.2094 27.0606 25.8165 26.9976 25.423 27.0144C25.2735 26.5864 24.9946 26.2156 24.625 25.9532C24.2554 25.6908 23.8133 25.5499 23.36 25.55C23.1052 25.55 22.857 25.5945 22.622 25.6814C22.5619 24.853 22.1907 24.078 21.5828 23.512C20.975 22.9461 20.1756 22.6309 19.345 22.63C18.6967 22.6326 18.0635 22.826 17.5243 23.1861C16.9852 23.5462 16.564 24.0571 16.3133 24.655C15.8167 24.2896 15.2166 24.0917 14.6 24.09C14.208 24.0905 13.8202 24.1699 13.4595 24.3234C13.0988 24.4769 12.7727 24.7014 12.5006 24.9835C12.2284 25.2656 12.0158 25.5995 11.8753 25.9655C11.7348 26.3314 11.6694 26.7219 11.6829 27.1136C11.0573 27.2743 10.5027 27.638 10.1059 28.1476C9.70907 28.6572 9.49247 29.2841 9.49001 29.93C9.49001 31.5404 10.7996 32.85 12.41 32.85Z" fill="#472B29"/>
<path d="M16.425 32.12H17.155C17.2518 32.12 17.3446 32.1584 17.4131 32.2269C17.4815 32.2953 17.52 32.3882 17.52 32.485C17.52 32.5818 17.4815 32.6746 17.4131 32.7431C17.3446 32.8115 17.2518 32.85 17.155 32.85H16.425C16.3282 32.85 16.2354 32.8115 16.1669 32.7431C16.0985 32.6746 16.06 32.5818 16.06 32.485C16.06 32.3882 16.0985 32.2953 16.1669 32.2269C16.2354 32.1584 16.3282 32.12 16.425 32.12Z" fill="#472B29"/>
<path d="M25.3369 52.049C25.3331 51.9761 25.3311 51.903 25.331 51.83C25.331 44.0613 31.4878 37.741 39.055 37.741C46.6222 37.741 52.779 44.0613 52.779 51.83C52.779 51.9037 52.7768 51.976 52.7732 52.049H25.3369Z" fill="#FBCD59"/>
<path d="M39.055 38.252C46.2455 38.252 52.1132 44.1855 52.2651 51.538H25.8449C25.9968 44.1855 31.8645 38.252 39.055 38.252ZM39.055 37.23C31.1929 37.23 24.82 43.7664 24.82 51.83C24.82 52.076 24.8441 52.3169 24.8558 52.56H53.2542C53.2659 52.3169 53.29 52.076 53.29 51.83C53.29 43.7664 46.9171 37.23 39.055 37.23Z" fill="#472B29"/>
<path d="M43.2817 41.4618C43.2544 41.4618 43.2274 41.4556 43.2029 41.4436C42.3007 41.0105 41.3451 40.699 40.361 40.5172C40.3374 40.5129 40.3149 40.504 40.2948 40.491C40.2746 40.478 40.2572 40.4611 40.2436 40.4414C40.23 40.4217 40.2204 40.3994 40.2153 40.376C40.2103 40.3526 40.2099 40.3284 40.2142 40.3048C40.2186 40.2812 40.2275 40.2587 40.2405 40.2386C40.2535 40.2184 40.2703 40.201 40.2901 40.1874C40.3098 40.1738 40.332 40.1642 40.3555 40.1592C40.3789 40.1541 40.4031 40.1537 40.4267 40.1581C41.4385 40.3435 42.4254 40.6654 43.3613 41.1144C43.3982 41.1326 43.4279 41.1628 43.4456 41.2C43.4633 41.2372 43.4679 41.2793 43.4587 41.3195C43.4495 41.3597 43.427 41.3956 43.3949 41.4214C43.3628 41.4472 43.3229 41.4615 43.2817 41.4618ZM49.9882 49.9065C49.9473 49.9065 49.9076 49.8927 49.8754 49.8675C49.8432 49.8422 49.8205 49.8068 49.8108 49.767C49.0691 46.7237 47.2887 44.0964 44.7972 42.3707C44.7574 42.3431 44.7302 42.3008 44.7216 42.2532C44.713 42.2055 44.7236 42.1564 44.7512 42.1166C44.7788 42.0769 44.821 42.0497 44.8687 42.041C44.9163 42.0324 44.9655 42.0431 45.0052 42.0707C47.5705 43.8475 49.4028 46.5507 50.1656 49.6809C50.172 49.7077 50.1722 49.7357 50.1663 49.7626C50.1604 49.7896 50.1484 49.8148 50.1314 49.8365C50.1143 49.8582 50.0926 49.8758 50.0678 49.8879C50.043 49.9 50.0158 49.9063 49.9882 49.9065ZM57.67 52.56H21.17C20.9764 52.56 20.7907 52.4831 20.6538 52.3462C20.5169 52.2093 20.44 52.0236 20.44 51.83C20.44 51.6364 20.5169 51.4507 20.6538 51.3138C20.7907 51.1769 20.9764 51.1 21.17 51.1H57.67C57.8636 51.1 58.0493 51.1769 58.1862 51.3138C58.3231 51.4507 58.4 51.6364 58.4 51.83C58.4 52.0236 58.3231 52.2093 58.1862 52.3462C58.0493 52.4831 57.8636 52.56 57.67 52.56Z" fill="#472B29"/>
<path d="M42.9006 23.3183L43.3883 23.806L39.055 28.1393L34.7217 23.806L35.2094 23.3183L37.4297 25.538C37.6443 25.7525 37.9668 25.8166 38.2471 25.7005C38.5273 25.5844 38.71 25.3109 38.71 25.0076L38.71 18.4321L39.4 18.4321L39.4 25.0076C39.4 25.3109 39.5827 25.5844 39.8629 25.7005C40.1432 25.8166 40.4658 25.7525 40.6803 25.538L42.9006 23.3183Z" fill="#00A5A5" stroke="#472B29" stroke-width="1.5" stroke-linejoin="round"/>
<path d="M32.2149 37.43C32.1451 37.43 32.0768 37.41 32.0181 37.3723C31.9594 37.3347 31.9127 37.281 31.8835 37.2176L30.3556 33.9027C30.3339 33.8589 30.3213 33.8113 30.3183 33.7626C30.3154 33.7138 30.3223 33.665 30.3385 33.619C30.3548 33.573 30.3801 33.5307 30.413 33.4947C30.4459 33.4586 30.4857 33.4295 30.53 33.4091C30.5744 33.3887 30.6224 33.3774 30.6711 33.3758C30.7199 33.3743 30.7685 33.3825 30.8141 33.4001C30.8596 33.4177 30.9011 33.4442 30.9362 33.4781C30.9714 33.512 30.9993 33.5526 31.0184 33.5975L32.5463 36.9125C32.5719 36.9681 32.5831 37.0292 32.5789 37.0902C32.5746 37.1513 32.5551 37.2103 32.5221 37.2619C32.4891 37.3134 32.4437 37.3558 32.39 37.3852C32.3363 37.4146 32.2761 37.43 32.2149 37.43ZM26.6968 41.8005C26.6098 41.8007 26.5256 41.7696 26.4596 41.7129L23.6849 39.3412C23.6484 39.31 23.6185 39.272 23.5968 39.2293C23.575 39.1865 23.5619 39.1399 23.5582 39.0922C23.5545 39.0444 23.5602 38.9963 23.575 38.9507C23.5899 38.9051 23.6136 38.8629 23.6447 38.8265C23.6759 38.7901 23.7139 38.7601 23.7566 38.7384C23.7993 38.7167 23.8459 38.7036 23.8937 38.6999C23.9415 38.6961 23.9896 38.7018 24.0351 38.7167C24.0807 38.7315 24.1229 38.7552 24.1594 38.7864L26.9341 41.1581C26.9908 41.2066 27.0313 41.2713 27.0501 41.3435C27.0689 41.4158 27.0651 41.492 27.0393 41.562C27.0134 41.632 26.9667 41.6924 26.9055 41.735C26.8443 41.7777 26.7715 41.8005 26.6968 41.8005ZM23.5148 48.0793C23.4812 48.0793 23.4478 48.0747 23.4155 48.0654L19.9027 47.0726C19.8125 47.0439 19.7369 46.9812 19.692 46.8979C19.6471 46.8145 19.6364 46.7169 19.6621 46.6258C19.6877 46.5347 19.7478 46.457 19.8296 46.4094C19.9115 46.3617 20.0086 46.3477 20.1006 46.3703L23.6133 47.3631C23.698 47.3872 23.7711 47.441 23.8192 47.5146C23.8674 47.5883 23.8873 47.6769 23.8753 47.764C23.8633 47.8512 23.8202 47.9311 23.7539 47.989C23.6877 48.047 23.6028 48.079 23.5148 48.0793ZM38.982 35.77C38.8852 35.77 38.7924 35.7315 38.7239 35.6631C38.6555 35.5946 38.617 35.5018 38.617 35.405V31.755C38.617 31.6582 38.6555 31.5654 38.7239 31.4969C38.7924 31.4285 38.8852 31.39 38.982 31.39C39.0788 31.39 39.1717 31.4285 39.2401 31.4969C39.3086 31.5654 39.347 31.6582 39.347 31.755V35.405C39.347 35.5018 39.3086 35.5946 39.2401 35.6631C39.1717 35.7315 39.0788 35.77 38.982 35.77ZM45.8228 37.43C45.7616 37.43 45.7014 37.4146 45.6477 37.3852C45.5941 37.3558 45.5486 37.3134 45.5156 37.2619C45.4826 37.2103 45.4631 37.1513 45.4589 37.0902C45.4546 37.0292 45.4658 36.9681 45.4914 36.9125L47.0193 33.5975C47.0615 33.5124 47.1352 33.4471 47.2248 33.4154C47.3143 33.3837 47.4127 33.3883 47.499 33.428C47.5853 33.4677 47.6527 33.5395 47.6869 33.6282C47.7211 33.7168 47.7194 33.8153 47.6822 33.9027L46.1543 37.2176C46.1252 37.281 46.0785 37.3348 46.0197 37.3724C45.961 37.4101 45.8926 37.4301 45.8228 37.43ZM51.3402 41.8005C51.2656 41.8005 51.1927 41.7777 51.1315 41.735C51.0703 41.6924 51.0236 41.632 50.9978 41.562C50.9719 41.492 50.9681 41.4158 50.9869 41.3435C51.0057 41.2713 51.0462 41.2066 51.1029 41.1581L53.8777 38.7864C53.9512 38.7234 54.0468 38.6923 54.1433 38.6999C54.2398 38.7074 54.3294 38.7529 54.3923 38.8265C54.4552 38.9001 54.4864 38.9956 54.4788 39.0922C54.4713 39.1887 54.4257 39.2782 54.3522 39.3412L51.5774 41.7129C51.5114 41.7697 51.4272 41.8008 51.3402 41.8005ZM54.5223 48.0793C54.4343 48.079 54.3493 48.047 54.2831 47.989C54.2168 47.9311 54.1738 47.8512 54.1618 47.764C54.1498 47.6769 54.1697 47.5883 54.2178 47.5146C54.2659 47.441 54.3391 47.3872 54.4237 47.3631L57.9365 46.3703C57.9831 46.3555 58.0323 46.3502 58.081 46.3547C58.1298 46.3593 58.1771 46.3736 58.2202 46.3968C58.2633 46.42 58.3013 46.4517 58.3319 46.4899C58.3625 46.5281 58.3852 46.5721 58.3984 46.6192C58.4117 46.6663 58.4154 46.7156 58.4092 46.7642C58.403 46.8128 58.3871 46.8596 58.3625 46.9019C58.3378 46.9442 58.3049 46.9811 58.2657 47.0104C58.2265 47.0398 58.1818 47.0609 58.1343 47.0726L54.6215 48.0654C54.5892 48.0743 54.5558 48.079 54.5223 48.0793Z" fill="#472B29"/>
</svg>
